<svg xmlns="http://www.w3.org/2000/svg" width="102.402" height="20.421" viewBox="0 0 102.402 20.421"><g transform="translate(0.011)"><path d="M1.375,20.856A4.938,4.938,0,0,1-.006,17.215a4.752,4.752,0,0,1,1.381-3.641A4.645,4.645,0,0,1,4.89,12.194a5.105,5.105,0,0,1,3.013.879,4.394,4.394,0,0,1,1.674,2.553H6.313a1.465,1.465,0,0,0-1.381-.879,1.632,1.632,0,0,0-1.423.67,3.264,3.264,0,0,0-.46,1.8,3.222,3.222,0,0,0,.46,1.758,1.548,1.548,0,0,0,1.381.67,1.716,1.716,0,0,0,.879-.167,1.674,1.674,0,0,0,.544-.711H9.577A4.268,4.268,0,0,1,7.9,21.274a4.9,4.9,0,0,1-3.013.962,4.645,4.645,0,0,1-3.515-1.381Z" transform="translate(0 -7.088)"/><path d="M25.657,20.817a4.687,4.687,0,0,1-1.465-3.641,4.525,4.525,0,0,1,1.465-3.6A5.063,5.063,0,0,1,29.3,12.2a5.063,5.063,0,0,1,3.641,1.381,4.525,4.525,0,0,1,1.465,3.6,4.687,4.687,0,0,1-1.465,3.641,4.9,4.9,0,0,1-3.6,1.423,5.063,5.063,0,0,1-3.682-1.423Zm5.105-1.8a2.385,2.385,0,0,0,.586-1.8,2.678,2.678,0,0,0-.586-1.841,2.05,2.05,0,0,0-1.465-.628,1.967,1.967,0,0,0-1.465.628,2.511,2.511,0,0,0-.586,1.841,2.427,2.427,0,0,0,.628,1.8,1.883,1.883,0,0,0,1.465.628A1.925,1.925,0,0,0,30.762,19.017Z" transform="translate(-14.071 -7.091)"/><path d="M55.213,12.322v1.423A3.168,3.168,0,0,1,58.184,12.2a3.766,3.766,0,0,1,1.925.5,3.557,3.557,0,0,1,1.339,1.381A4.812,4.812,0,0,1,62.829,12.7a3.934,3.934,0,0,1,1.967-.5,3.892,3.892,0,0,1,2.846,1.088,4.352,4.352,0,0,1,1.046,3.1v5.733H65.716V16.8a1.925,1.925,0,0,0-.5-1.465,2.009,2.009,0,0,0-2.762,0,1.925,1.925,0,0,0-.5,1.465v5.314H58.937V16.8a2.134,2.134,0,0,0-.46-1.465,2.009,2.009,0,0,0-2.762,0,1.925,1.925,0,0,0-.5,1.465v5.314H52.2V12.322Z" transform="translate(-30.362 -7.091)"/><path d="M143.113,12.326v1.8a3.133,3.133,0,0,1,2.8-1.925v3.055h-.753a2.218,2.218,0,0,0-1.548.5,2.334,2.334,0,0,0-.5,1.716v4.645H140.1V12.326Z" transform="translate(-81.48 -7.095)"/><path d="M156.658,20.817a4.812,4.812,0,0,1-1.465-3.641,4.645,4.645,0,0,1,1.465-3.6A5.189,5.189,0,0,1,160.3,12.2a5.063,5.063,0,0,1,3.641,1.381,4.525,4.525,0,0,1,1.465,3.6,4.812,4.812,0,0,1-1.423,3.641A5.44,5.44,0,0,1,156.658,20.817Zm5.105-1.8a2.385,2.385,0,0,0,.586-1.8,2.511,2.511,0,0,0-.586-1.841,2.009,2.009,0,0,0-2.929,0,2.678,2.678,0,0,0-.586,1.841,2.427,2.427,0,0,0,.628,1.8,1.967,1.967,0,0,0,1.465.628,1.883,1.883,0,0,0,1.423-.628Z" transform="translate(-90.254 -7.091)"/><path d="M100.662,2.82h38.373l.8-2.72H97.9V20.479h4.352V17.717h-1.59Z" transform="translate(-56.939 -0.058)"/><path d="M160.655.1l-.921,2.72h11.257v14.9H122.7v2.762h51.053V.1Z" transform="translate(-71.361 -0.058)"/><path d="M207.99,20.812a5.022,5.022,0,0,1-1.3-3.6,5.022,5.022,0,0,1,1.3-3.6,4.1,4.1,0,0,1,3.18-1.423,3.222,3.222,0,0,1,2.846,1.381V12.317h3.013v9.792h-3.013V20.686a3.39,3.39,0,0,1-2.887,1.548A4.227,4.227,0,0,1,207.99,20.812Zm5.4-1.841a2.385,2.385,0,0,0,.628-1.758,2.427,2.427,0,0,0-.628-1.8,2.072,2.072,0,0,0-2.971,0,2.343,2.343,0,0,0-.67,1.8,2.26,2.26,0,0,0,.67,1.8,2.05,2.05,0,0,0,1.465.628,2.092,2.092,0,0,0,1.506-.67Z" transform="translate(-120.203 -7.086)"/><path d="M120.939,13.616a4.1,4.1,0,0,0-3.18-1.423,3.264,3.264,0,0,0-2.846,1.381V12.319H111.9v15.19h3.013V20.688a3.306,3.306,0,0,0,2.887,1.548,4.226,4.226,0,0,0,3.138-1.423,5.022,5.022,0,0,0,1.3-3.6,5.022,5.022,0,0,0-1.3-3.6Zm-2.427,5.4a2.05,2.05,0,0,1-1.465.628,2.092,2.092,0,0,1-1.506-.67,2.385,2.385,0,0,1-.628-1.758,2.427,2.427,0,0,1,.628-1.8,2.071,2.071,0,0,1,2.971,0,2.343,2.343,0,0,1,.67,1.8,2.26,2.26,0,0,1-.67,1.8Z" transform="translate(-65.08 -7.088)"/><path d="M186.512,12.512,184.88,7.2H181.7l2.846,7.825h3.934L193.375,0h-3.222Z" transform="translate(-105.671)"/></g></svg>