<svg xmlns="http://www.w3.org/2000/svg" width="119.395" height="38.118" viewBox="0 0 119.395 38.118"><defs><style>.a{fill:#325aff;fill-rule:evenodd;}</style></defs><path class="a" d="M100.162,0A19.059,19.059,0,1,0,119.4,18.884,19.059,19.059,0,0,0,100.162,0ZM21.274,11.773h-1.6l-6.02,9.146h7.621Zm6.2-5.478V31.473h-6.2V26.219H10.164L6.705,31.473H0L16.574,6.3h10.9ZM38.838,18.508H50.291L46.674,24H38.838v7.471h-6.2V6.3H50.291v5.494H38.838Zm27.715-12.2L54.652,6.3V31.473h6.2V24h5.7c2.768,0,9.206-.894,9.206-8.846S69.321,6.312,66.553,6.312Zm-.591,12.2H60.854V11.789h5.108c2.445,0,3.685,1.1,3.685,3.387s-1.239,3.332-3.685,3.332Z"/></svg>