<svg xmlns="http://www.w3.org/2000/svg" width="90" height="90" viewBox="0 0 90 90"><defs><style>.a{fill:#fff;opacity:0.18;}.b,.c{fill:#47c77d;}.b{opacity:0.1;}</style></defs><g transform="translate(-378 -6561)"><circle class="a" cx="45" cy="45" r="45" transform="translate(378 6561)"/><circle class="b" cx="39" cy="39" r="39" transform="translate(384 6567)"/><g transform="translate(1021 6688)"><g transform="translate(-657 -111)"><path class="c" d="M31.512,42.752l3.07,1.836,1.56,3.487-2.386,3.763h-4.13L26.5,47.25l2.753-3.488Z" transform="translate(27.822 -3.622)"/><path class="c" d="M28.015,11.322h6.975V36.746H28.015Z" transform="translate(27.688 -0.829)"/><g transform="translate(32 2)"><path class="c" d="M36.933,47.467a5.467,5.467,0,1,0-5.467,5.467,5.467,5.467,0,0,0,5.467-5.467Zm-5.467,3.644a3.644,3.644,0,1,1,3.644-3.644A3.644,3.644,0,0,1,31.467,51.111Z" transform="translate(-4.133 -5.556)"/><path class="c" d="M27,10.911V36.422a.911.911,0,0,0,.911.911H35.2a.911.911,0,0,0,.911-.911V10.911A.911.911,0,0,0,35.2,10H27.911A.911.911,0,0,0,27,10.911Zm1.822.911h5.467V35.511H28.822Z" transform="translate(-4.222 -2.711)"/><rect class="c" width="2" height="5" transform="translate(26)"/><rect class="c" width="1.822" height="5.467" transform="translate(19.381 1.163) rotate(-15.009)"/><rect class="c" width="1.822" height="5.467" transform="translate(12.878 4.117) rotate(-29.995)"/><rect class="c" width="1.822" height="5.467" transform="translate(7.361 8.65) rotate(-44.997)"/><rect class="c" width="1.822" height="5.467" transform="translate(3.206 14.455) rotate(-60.001)"/><rect class="c" width="1.822" height="5.466" transform="translate(0.695 21.139) rotate(-74.996)"/><rect class="c" width="5" height="2" transform="translate(0 26)"/><rect class="c" width="5.466" height="1.822" transform="matrix(0.966, -0.259, 0.259, 0.966, 0.696, 33.528)"/><rect class="c" width="5.467" height="1.822" transform="translate(3.207 40.211) rotate(-29.995)"/><rect class="c" width="5.467" height="1.822" transform="translate(7.361 46.017) rotate(-45)"/><rect class="c" width="5.467" height="1.822" transform="translate(12.878 50.549) rotate(-60.005)"/><rect class="c" width="5.467" height="1.822" transform="translate(19.387 53.509) rotate(-74.991)"/><rect class="c" width="2" height="6" transform="translate(26 49)"/><rect class="c" width="1.822" height="5.467" transform="translate(32.125 48.687) rotate(-15.009)"/><rect class="c" width="1.822" height="5.467" transform="translate(37.478 46.727) rotate(-29.999)"/><rect class="c" width="1.822" height="5.467" transform="translate(42.151 43.439) rotate(-44.997)"/><rect class="c" width="1.822" height="5.467" transform="translate(45.814 39.055) rotate(-60.001)"/><rect class="c" width="1.822" height="5.466" transform="translate(48.219 33.872) rotate(-74.996)"/><rect class="c" width="6" height="2" transform="translate(49 26)"/><rect class="c" width="5.466" height="1.822" transform="translate(48.22 20.794) rotate(-15.004)"/><rect class="c" width="5.467" height="1.822" transform="translate(45.814 15.61) rotate(-29.995)"/><rect class="c" width="5.467" height="1.822" transform="translate(42.152 11.228) rotate(-45.003)"/><rect class="c" width="5.467" height="1.822" transform="translate(37.477 7.94) rotate(-60.001)"/><rect class="c" width="5.467" height="1.822" transform="translate(32.12 5.975) rotate(-74.991)"/></g></g></g></g></svg>