<svg xmlns="http://www.w3.org/2000/svg" width="9.944" height="10.472" viewBox="0 0 9.944 10.472"><defs><style>.a{fill:#1b305a;}</style></defs><path class="a" d="M7.953,3.734A1.934,1.934,0,0,0,9.944,1.867,1.934,1.934,0,0,0,7.953,0,1.934,1.934,0,0,0,5.962,1.867a1.759,1.759,0,0,0,.029.321L3.45,4.075a2.049,2.049,0,0,0-1.459-.6A1.934,1.934,0,0,0,0,5.345,1.934,1.934,0,0,0,1.991,7.212a2.049,2.049,0,0,0,1.463-.6l2.52,1.782a1.764,1.764,0,0,0-.013.212,1.934,1.934,0,0,0,1.991,1.867A1.934,1.934,0,0,0,9.944,8.6,1.935,1.935,0,0,0,7.953,6.737,2,2,0,0,0,6.13,7.854L3.769,6.185a1.761,1.761,0,0,0,0-1.686L6.176,2.71A2.012,2.012,0,0,0,7.953,3.734Z"/></svg>