<svg xmlns="http://www.w3.org/2000/svg" width="33" height="33" viewBox="0 0 33 33"><defs><style>.a{fill:#fff;}</style></defs><path class="a" d="M1.559,23.5A16.5,16.5,0,1,1,18,32.931C17.5,32.977,17,33,16.5,33A16.507,16.507,0,0,1,1.559,23.5ZM3.043,10.025a14.928,14.928,0,1,0,13.464-8.48A14.929,14.929,0,0,0,3.043,10.025ZM18.64,21.9a3.2,3.2,0,0,1,.016-.351L14.5,18.61a3.366,3.366,0,0,1-2.412.989A3.193,3.193,0,0,1,8.8,16.52a3.192,3.192,0,0,1,3.287-3.082,3.4,3.4,0,0,1,2.407.983l4.194-3.11a2.664,2.664,0,0,1-.047-.532,3.291,3.291,0,0,1,6.569,0,3.193,3.193,0,0,1-3.287,3.082,3.316,3.316,0,0,1-2.929-1.69l-3.978,2.953a2.9,2.9,0,0,1,0,2.781l3.894,2.755a3.3,3.3,0,0,1,3.008-1.843A3.193,3.193,0,0,1,25.209,21.9a3.291,3.291,0,0,1-6.569,0Z"/></svg>